#!OML:ASF Y:\EmotionMaleHayes\Project 1\Capture day 1\Session 1\Male1.ASF
:FULLY-SPECIFIED
:DEGREES
1186
root 27.319 16.8101 14.9543 -365.83 -107.655 -358.169
lowerback 9.33226 2.61389 3.82092
upperback 1.80287 3.81483 1.23196
thorax -3.18269 1.82969 -1.31223
lowerneck -17.1595 -6.83455 -3.0332
upperneck 26.3435 -12.0301 8.05063
head 12.2608 -4.92067 1.55754
rclavicle -4.60683e-014 6.75868e-015
rhumerus -35.1879 15.1881 -91.3661
rradius 53.2214
rwrist -21.5984
rhand -7.33723 -32.6169
rfingers 7.12502
rthumb 18.5465 -61.7528
lclavicle -4.60683e-014 6.75868e-015
lhumerus -42.9405 5.14786 83.1631
lradius 23.3559
lwrist -25.0533
lhand -4.98166 -27.5817
lfingers 7.12502
lthumb 20.811 1.32219
rfemur 10.8067 -1.37489 31.431
rtibia 8.98211
rfoot -18.0778 3.39401
rtoes 30.522
lfemur -14.7605 7.83692 -8.40322
ltibia 54.5248
lfoot -9.55477 11.6962
ltoes -13.0853
1187
root 27.1826 16.8092 14.9525 -366.313 -109.142 -357.641
lowerback 9.50055 2.87251 4.35012
upperback 1.8699 4.20699 1.0991
thorax -3.13815 2.01904 -1.7935
lowerneck -17.4456 -6.82193 -2.97271
upperneck 26.4375 -12.0385 8.04599
head 12.3531 -4.90539 1.53434
rclavicle -6.58971e-014 8.34896e-015
rhumerus -34.4139 15.6705 -91.412
rradius 53.9958
rwrist -21.4444
rhand -6.99488 -32.9038
rfingers 7.12502
rthumb 18.8757 -62.008
lclavicle -6.58971e-014 8.34896e-015
lhumerus -43.3643 5.70796 82.8553
lradius 22.8139
lwrist -25.5801
lhand -4.5831 -27.5148
lfingers 7.12502
lthumb 21.1939 1.34666
rfemur 11.3996 -0.501206 31.7342
rtibia 9.0084
rfoot -18.2734 3.98035
rtoes 30.4979
lfemur -15.4407 8.01211 -8.06714
ltibia 52.8738
lfoot -10.2018 11.9414
ltoes -13.1753
1188
root 27.0435 16.8035 14.9477 -366.437 -110.479 -357.419
lowerback 9.60183 3.04055 4.69181
upperback 1.86883 4.46452 1.00551
thorax -3.14559 2.14263 -2.11383
lowerneck -17.7551 -6.64638 -2.88469
upperneck 26.6362 -11.8035 7.94745
head 12.4658 -4.78766 1.51308
rclavicle -8.9627e-014 -2.10712e-014
rhumerus -33.6872 16.3222 -91.4367
rradius 54.7309
rwrist -21.3132
rhand -6.93326 -33.2028
rfingers 7.12502
rthumb 18.935 -62.3011
lclavicle -8.9627e-014 -2.10712e-014
lhumerus -43.8995 6.64741 82.3943
lradius 22.2198
lwrist -26.5063
lhand -4.09082 -27.2254
lfingers 7.12502
lthumb 21.6667 1.58227
rfemur 11.9741 0.189076 31.8773
rtibia 8.95887
rfoot -18.3992 4.56278
rtoes 30.4192
lfemur -16.0359 7.97355 -7.83981
ltibia 50.8492
lfoot -10.6891 12.0173
ltoes -14.7348
1189
root 26.9067 16.7948 14.9394 -365.895 -111.542 -357.773
lowerback 9.57914 3.12736 4.71923
upperback 1.78616 4.58355 0.885314
thorax -3.19897 2.20014 -2.26795
lowerneck -17.3506 -6.43207 -2.9242
upperneck 26.3263 -11.4565 8.00739
head 12.2427 -4.65551 1.61469
rclavicle -6.36111e-015 7.55382e-015
rhumerus -32.862 17.0149 -91.4855
rradius 55.154
rwrist -21.2548
rhand -7.37012 -32.8257
rfingers 7.12502
rthumb 18.5148 -61.9646
lclavicle -6.36111e-015 7.55382e-015
lhumerus -44.8043 7.51173 81.9549
lradius 22.1595
lwrist -27.3811
lhand -4.41517 -27.7578
lfingers 7.12502
lthumb 21.3552 1.08541
rfemur 12.4647 0.584163 31.6732
rtibia 8.83942
rfoot -18.5659 5.14515
rtoes 30.148
lfemur -16.6986 7.78367 -7.88091
ltibia 48.5949
lfoot -10.7777 12.135
ltoes -17.5656
1190
root 26.7755 16.79 14.929 -365.498 -112.372 -357.988
lowerback 9.57564 3.17386 4.75355
upperback 1.75487 4.6468 0.76001
thorax -3.21184 2.23096 -2.42429
lowerneck -16.9732 -6.39124 -2.96498
upperneck 25.8567 -11.3226 8.0389
head 11.9765 -4.62158 1.66786
rclavicle -6.63444e-015 -3.18055e-015
rhumerus -31.9044 17.4736 -91.4496
rradius 55.4288
rwrist -20.8619
rhand -7.45308 -32.5061
rfingers 7.12502
rthumb 18.435 -61.6525
lclavicle -6.63444e-015 -3.18055e-015
lhumerus -45.3145 8.29854 81.4916
lradius 21.584
lwrist -28.2574
lhand -5.07108 -28.3665
lfingers 7.12502
lthumb 20.7251 0.546784
rfemur 12.9127 0.852762 31.4979
rtibia 8.71919
rfoot -18.8792 5.59612
rtoes 29.5061
lfemur -17.4825 7.488 -7.87474
ltibia 46.3982
lfoot -11.026 12.0656
ltoes -16.3448
1191
root 26.6451 16.785 14.9174 -365.938 -113.497 -357.43
lowerback 9.70232 3.33829 5.11482
upperback 1.82805 4.89933 0.717689
thorax -3.15229 2.35346 -2.70045
lowerneck -18.0253 -6.31365 -2.54799
upperneck 26.6704 -11.2088 7.32848
head 12.4242 -4.55494 1.32161
rclavicle -2.60159e-014 3.97569e-016
rhumerus -30.8733 17.7146 -91.2466
rradius 55.7614
rwrist -20.2332
rhand -7.3479 -32.7602
rfingers 7.12502
rthumb 18.5362 -61.897
lclavicle -2.60159e-014 3.97569e-016
lhumerus -45.7412 9.21445 80.9168
lradius 21.2087
lwrist -29.3036
lhand -3.03157 -27.7626
lfingers 7.12502
lthumb 22.6837 0.924254
rfemur 13.4214 1.314 31.7348
rtibia 8.63718
rfoot -18.9516 6.15224
rtoes 29.1653
lfemur -17.9877 7.38869 -7.37635
ltibia 43.9316
lfoot -10.4587 12.019
ltoes -16.0415
